<svg width="242" height="222" viewBox="0 0 242 222" fill="none" xmlns="http://www.w3.org/2000/svg">
<path d="M16.9008 197.621C12.9333 200.351 8.87615 203.168 6.12886 207.122C3.38176 211.075 2.18254 216.473 4.38993 220.751L4.333 221.017C6.00601 221.605 7.80229 221.752 9.54877 221.445C11.2952 221.137 12.9331 220.386 14.3044 219.262C17.7968 216.334 18.8919 211.508 19.7828 207.041L22.4181 193.826L16.9008 197.621Z" fill="#F0F0F0"/>
<path d="M20.7222 210.948C18.0756 211.533 15.3638 212.145 13.0943 213.626C10.825 215.107 9.05729 217.668 9.3028 220.365L9.21667 220.492C9.96469 221.152 10.8702 221.608 11.846 221.817C12.8217 222.026 13.8348 221.98 14.7877 221.684C17.2287 220.895 18.821 218.61 20.2313 216.468L24.4026 210.134L20.7222 210.948Z" fill="#F0F0F0"/>
<path d="M241.672 11.797H15.6923C15.6055 11.7967 15.5223 11.7621 15.4611 11.7006C15.3998 11.6392 15.3654 11.556 15.3654 11.4693C15.3654 11.3826 15.3998 11.2994 15.4611 11.238C15.5223 11.1766 15.6055 11.1419 15.6923 11.1416H241.672C241.759 11.1419 241.842 11.1766 241.903 11.238C241.964 11.2994 241.999 11.3826 241.999 11.4693C241.999 11.556 241.964 11.6392 241.903 11.7006C241.842 11.7621 241.759 11.7967 241.672 11.797Z" fill="#CACACA"/>
<path d="M23.0744 7.20928C25.0669 7.20928 26.6822 5.59543 26.6822 3.60464C26.6822 1.61385 25.0669 0 23.0744 0C21.0819 0 19.4666 1.61385 19.4666 3.60464C19.4666 5.59543 21.0819 7.20928 23.0744 7.20928Z" fill="#3F3D56"/>
<path d="M35.5377 7.20928C37.5303 7.20928 39.1455 5.59543 39.1455 3.60464C39.1455 1.61385 37.5303 0 35.5377 0C33.5452 0 31.9299 1.61385 31.9299 3.60464C31.9299 5.59543 33.5452 7.20928 35.5377 7.20928Z" fill="#3F3D56"/>
<path d="M48.0011 7.20928C49.9936 7.20928 51.6089 5.59543 51.6089 3.60464C51.6089 1.61385 49.9936 0 48.0011 0C46.0085 0 44.3932 1.61385 44.3932 3.60464C44.3932 5.59543 46.0085 7.20928 48.0011 7.20928Z" fill="#3F3D56"/>
<path d="M234.205 2.20485H225.349C225.175 2.20485 225.008 2.1358 224.885 2.01289C224.762 1.88998 224.693 1.72328 224.693 1.54946C224.693 1.37564 224.762 1.20894 224.885 1.08603C225.008 0.96312 225.175 0.894073 225.349 0.894073H234.205C234.379 0.894073 234.545 0.96312 234.668 1.08603C234.791 1.20894 234.861 1.37564 234.861 1.54946C234.861 1.72328 234.791 1.88998 234.668 2.01289C234.545 2.1358 234.379 2.20485 234.205 2.20485Z" fill="#3F3D56"/>
<path d="M234.205 4.66255H225.349C225.175 4.66255 225.008 4.5935 224.885 4.4706C224.762 4.34769 224.693 4.18098 224.693 4.00716C224.693 3.83334 224.762 3.66665 224.885 3.54374C225.008 3.42083 225.175 3.35178 225.349 3.35178H234.205C234.379 3.35178 234.545 3.42083 234.668 3.54374C234.791 3.66665 234.861 3.83334 234.861 4.00716C234.861 4.18098 234.791 4.34769 234.668 4.4706C234.545 4.5935 234.379 4.66255 234.205 4.66255Z" fill="#3F3D56"/>
<path d="M234.205 7.12027H225.349C225.175 7.12027 225.008 7.05122 224.885 6.92831C224.762 6.8054 224.693 6.6387 224.693 6.46488C224.693 6.29106 224.762 6.12436 224.885 6.00145C225.008 5.87854 225.175 5.80949 225.349 5.80949H234.205C234.378 5.81009 234.544 5.8794 234.667 6.00225C234.79 6.12509 234.858 6.29145 234.858 6.46488C234.858 6.63831 234.79 6.80467 234.667 6.92751C234.544 7.05036 234.378 7.11967 234.205 7.12027Z" fill="#3F3D56"/>
<path d="M169.264 25.8492H19.3762V115.638H169.264V25.8492Z" fill="#F0F0F0"/>
<path d="M234.861 25.8492H187.631V54.1414H234.861V25.8492Z" fill="#F0F0F0"/>
<path d="M225.438 67.1387H197.337C196.986 67.1387 196.649 66.9994 196.401 66.7514C196.152 66.5034 196.013 66.167 196.013 65.8163C196.013 65.4655 196.152 65.1292 196.401 64.8812C196.649 64.6331 196.986 64.4938 197.337 64.4938H225.438C225.789 64.4938 226.126 64.6331 226.374 64.8812C226.622 65.1292 226.762 65.4655 226.762 65.8163C226.762 66.167 226.622 66.5034 226.374 66.7514C226.126 66.9994 225.789 67.1387 225.438 67.1387H225.438Z" fill="#E4E4E4"/>
<path d="M220.907 62.6119H201.867C201.516 62.6119 201.18 62.4725 200.932 62.2245C200.683 61.9765 200.544 61.6402 200.544 61.2894C200.544 60.9387 200.683 60.6023 200.932 60.3543C201.18 60.1063 201.516 59.9669 201.867 59.9669H220.907C221.258 59.9669 221.595 60.1063 221.843 60.3543C222.091 60.6023 222.231 60.9387 222.231 61.2894C222.231 61.6402 222.091 61.9765 221.843 62.2245C221.595 62.4725 221.258 62.6119 220.907 62.6119Z" fill="#E4E4E4"/>
<path d="M234.861 77.2973H187.631V105.589H234.861V77.2973Z" fill="#F0F0F0"/>
<path d="M225.438 118.587H197.337C196.986 118.587 196.649 118.448 196.401 118.2C196.152 117.952 196.013 117.615 196.013 117.264C196.013 116.914 196.152 116.577 196.401 116.329C196.649 116.081 196.986 115.942 197.337 115.942H225.438C225.789 115.942 226.126 116.081 226.374 116.329C226.622 116.577 226.762 116.914 226.762 117.264C226.762 117.615 226.622 117.952 226.374 118.2C226.126 118.448 225.789 118.587 225.438 118.587H225.438Z" fill="#E4E4E4"/>
<path d="M220.907 114.06H201.867C201.516 114.06 201.18 113.921 200.932 113.673C200.683 113.425 200.544 113.088 200.544 112.738C200.544 112.387 200.683 112.05 200.932 111.802C201.18 111.554 201.516 111.415 201.867 111.415H220.907C221.258 111.416 221.594 111.555 221.842 111.803C222.089 112.051 222.229 112.387 222.229 112.738C222.229 113.088 222.089 113.424 221.842 113.672C221.594 113.92 221.258 114.059 220.907 114.06Z" fill="#E4E4E4"/>
<path d="M96.9248 74.1518C103.102 74.1518 108.11 69.1485 108.11 62.9766C108.11 56.8047 103.102 51.8013 96.9248 51.8013C90.7475 51.8013 85.7397 56.8047 85.7397 62.9766C85.7397 69.1485 90.7475 74.1518 96.9248 74.1518Z" fill="#9E616A"/>
<path d="M115.77 115.638H87.7245L89.2986 80.204L89.4923 80.0007L92.2769 77.0645H101.133L104.419 80.2431L104.678 80.4956L111.671 87.1903L115.77 115.638Z" fill="#6C63FF"/>
<path d="M95.4878 115.638H74.1722C74.0312 102.078 73.9196 91.8469 73.9196 91.8469L75.0086 91.185L75.0152 91.1817L86.97 83.9298L89.4792 79.8566L89.4924 80.0008L90.2303 88.5864C90.2303 88.5864 94.2414 101.534 95.4878 115.638Z" fill="#2F2E41"/>
<path d="M124.491 115.638H105.524C104.51 111.043 103.982 106.669 104.212 103.021C105.144 88.1211 102.995 79.8566 103.927 79.8566L104.419 80.2433L110.27 84.8605L117.974 87.6819L123.32 89.6416L124.252 89.9824V90.4313C124.255 92.6859 124.278 103.156 124.491 115.638Z" fill="#2F2E41"/>
<path d="M86.3431 66.4729C86.3431 66.4729 87.2934 64.8055 87.0725 59.2351C86.8516 53.6647 95.3413 56.8152 102.435 56.2838C109.53 55.7524 108.028 65.5837 108.028 65.5837C108.028 65.5837 108.54 64.9993 109.635 60.2545C110.731 55.5096 108.243 50.7811 108.243 50.7811C107.51 45.7952 103.562 47.3932 103.562 47.3932C105.463 48.1329 105.098 49.7145 105.098 49.7145C103.488 46.8946 99.5393 48.4926 99.5393 48.4926C94.2726 45.1905 88.9348 49.539 88.9348 49.539C82.5723 50.9817 86.3036 56.0371 86.3036 56.0371C79.9051 59.2678 86.3431 66.4729 86.3431 66.4729Z" fill="#2F2E41"/>
<path d="M67.9964 115.638C68.5407 104.761 68.9573 96.2282 68.7933 95.5696C68.3342 93.7377 74.8118 91.2571 75.0086 91.185L75.0118 91.1817H75.0152L76.2517 91.8469L77.1568 115.638H67.9964Z" fill="#2F2E41"/>
<path d="M128.952 115.638H119.326L116.57 88.4488L117.705 87.6197C117.705 87.6197 117.804 87.6426 117.974 87.6819C118.857 87.9015 121.703 88.6454 123.32 89.6416C123.678 89.8434 123.994 90.1114 124.252 90.4313C124.409 90.6196 124.488 90.8614 124.472 91.1064C124.39 91.8764 126.489 102.762 128.952 115.638Z" fill="#2F2E41"/>
<path d="M145.157 126.615H43.4829C43.0919 126.616 42.7171 126.772 42.4408 127.048C42.1646 127.325 42.0094 127.699 42.0094 128.09C42.0094 128.481 42.1646 128.855 42.4408 129.132C42.7171 129.408 43.0919 129.564 43.4829 129.565H145.157C145.351 129.565 145.544 129.527 145.723 129.453C145.902 129.379 146.065 129.271 146.203 129.134C146.34 128.997 146.449 128.834 146.523 128.655C146.597 128.476 146.636 128.284 146.636 128.09C146.636 127.896 146.597 127.704 146.523 127.525C146.449 127.346 146.34 127.183 146.203 127.046C146.065 126.909 145.902 126.801 145.723 126.727C145.544 126.653 145.351 126.615 145.157 126.615Z" fill="#CACACA"/>
<path d="M117.607 126.615V129.565H43.4829C43.0919 129.564 42.7171 129.408 42.4408 129.132C42.1646 128.855 42.0094 128.481 42.0094 128.09C42.0094 127.699 42.1646 127.325 42.4408 127.048C42.7171 126.772 43.0919 126.616 43.4829 126.615H117.607Z" fill="#3F3D56"/>
<path d="M117.607 131.039C119.237 131.039 120.559 129.719 120.559 128.09C120.559 126.461 119.237 125.141 117.607 125.141C115.977 125.141 114.655 126.461 114.655 128.09C114.655 129.719 115.977 131.039 117.607 131.039Z" fill="#3F3D56"/>
<path d="M94.3202 152.667C93.115 152.667 91.9369 152.31 90.9349 151.641C89.9328 150.972 89.1518 150.021 88.6906 148.909C88.2295 147.796 88.1088 146.572 88.3439 145.391C88.579 144.21 89.1593 143.126 90.0115 142.274C90.8637 141.423 91.9494 140.843 93.1314 140.608C94.3134 140.373 95.5386 140.494 96.652 140.955C97.7654 141.415 98.7171 142.196 99.3866 143.197C100.056 144.198 100.414 145.375 100.414 146.579C100.412 148.193 99.7691 149.741 98.6268 150.882C97.4845 152.023 95.9357 152.665 94.3202 152.667ZM94.3202 140.959C93.2077 140.959 92.1203 141.289 91.1953 141.906C90.2703 142.524 89.5494 143.402 89.1237 144.429C88.698 145.455 88.5866 146.585 88.8036 147.675C89.0206 148.766 89.5563 149.767 90.3429 150.553C91.1296 151.339 92.1318 151.874 93.2228 152.091C94.3139 152.308 95.4449 152.196 96.4726 151.771C97.5004 151.346 98.3789 150.625 98.9969 149.701C99.6149 148.777 99.9448 147.691 99.9448 146.579C99.9431 145.089 99.35 143.661 98.2955 142.607C97.241 141.554 95.8114 140.961 94.3202 140.959V140.959Z" fill="#6C63FF"/>
<path d="M93.5154 149.857C93.4533 149.857 93.3937 149.833 93.3497 149.789C93.3058 149.745 93.2811 149.685 93.2811 149.623V143.535C93.2808 143.504 93.2866 143.473 93.2982 143.445C93.3099 143.416 93.3271 143.39 93.3489 143.368C93.3707 143.346 93.3966 143.329 93.4252 143.317C93.4538 143.305 93.4844 143.299 93.5154 143.299C93.5464 143.299 93.5771 143.305 93.6057 143.317C93.6343 143.329 93.6602 143.346 93.682 143.368C93.7038 143.39 93.721 143.416 93.7326 143.445C93.7443 143.473 93.7501 143.504 93.7498 143.535V149.623C93.7498 149.685 93.7251 149.745 93.6811 149.789C93.6372 149.833 93.5776 149.857 93.5154 149.857Z" fill="#6C63FF"/>
<path d="M95.1249 149.857C95.0628 149.857 95.0032 149.833 94.9592 149.789C94.9153 149.745 94.8906 149.685 94.8906 149.623V143.535C94.8903 143.504 94.8961 143.474 94.9078 143.445C94.9194 143.416 94.9367 143.39 94.9584 143.368C94.9802 143.346 95.0062 143.329 95.0347 143.317C95.0633 143.305 95.094 143.299 95.1249 143.299C95.1559 143.299 95.1865 143.305 95.2151 143.317C95.2437 143.329 95.2696 143.346 95.2914 143.368C95.3132 143.39 95.3304 143.416 95.3421 143.445C95.3537 143.474 95.3596 143.504 95.3593 143.535V149.623C95.3593 149.685 95.3346 149.745 95.2907 149.789C95.2467 149.833 95.1871 149.857 95.1249 149.857Z" fill="#6C63FF"/>
<path d="M66.4112 146.579C66.4112 145.375 66.7686 144.198 67.4381 143.197C68.1077 142.196 69.0593 141.415 70.1727 140.955C71.2861 140.494 72.5113 140.373 73.6933 140.608C74.8753 140.843 75.961 141.423 76.8132 142.274C77.6654 143.126 78.2457 144.21 78.4808 145.391C78.7159 146.572 78.5953 147.796 78.1341 148.909C77.6729 150.021 76.8919 150.972 75.8898 151.641C74.8878 152.31 73.7097 152.667 72.5045 152.667C70.889 152.665 69.3402 152.023 68.1979 150.882C67.0556 149.741 66.413 148.193 66.4112 146.579ZM66.8799 146.579C66.8799 147.691 67.2098 148.777 67.8278 149.701C68.4459 150.625 69.3243 151.346 70.3521 151.771C71.3799 152.196 72.5108 152.308 73.6019 152.091C74.693 151.874 75.6952 151.339 76.4818 150.553C77.2684 149.767 77.8041 148.766 78.0211 147.675C78.2382 146.585 78.1268 145.455 77.701 144.429C77.2753 143.402 76.5544 142.524 75.6294 141.906C74.7045 141.289 73.617 140.959 72.5045 140.959C71.0133 140.961 69.5837 141.554 68.5292 142.607C67.4748 143.661 66.8816 145.089 66.8799 146.579H66.8799Z" fill="#3F3D56"/>
<path d="M75.1364 148.629C75.1793 148.629 75.2211 148.615 75.2551 148.589C75.2892 148.563 75.3137 148.526 75.3248 148.485C75.3359 148.443 75.3331 148.399 75.3167 148.36C75.3002 148.32 75.2712 148.287 75.234 148.265L72.3106 146.579L75.234 144.893C75.2788 144.867 75.3115 144.824 75.3249 144.775C75.3383 144.725 75.3312 144.671 75.3054 144.627C75.2796 144.582 75.237 144.549 75.1871 144.536C75.1371 144.523 75.0839 144.53 75.0391 144.555L71.8234 146.41C71.7938 146.428 71.7692 146.452 71.7521 146.482C71.7349 146.511 71.726 146.545 71.726 146.579C71.726 146.613 71.7349 146.647 71.7521 146.676C71.7692 146.706 71.7938 146.731 71.8234 146.748L75.0391 148.603C75.0687 148.62 75.1022 148.629 75.1364 148.629Z" fill="#3F3D56"/>
<path d="M70.8245 149.305C70.8762 149.305 70.9258 149.285 70.9624 149.248C70.9989 149.212 71.0194 149.162 71.0194 149.111V144.048C71.0194 143.996 70.9989 143.947 70.9624 143.91C70.9258 143.873 70.8762 143.853 70.8245 143.853C70.7728 143.853 70.7233 143.873 70.6867 143.91C70.6502 143.947 70.6296 143.996 70.6296 144.048V149.111C70.6296 149.162 70.6502 149.212 70.6867 149.248C70.7233 149.285 70.7728 149.305 70.8245 149.305Z" fill="#3F3D56"/>
<path d="M116.136 152.667C114.931 152.667 113.753 152.31 112.751 151.641C111.748 150.972 110.967 150.021 110.506 148.909C110.045 147.796 109.924 146.572 110.16 145.391C110.395 144.21 110.975 143.126 111.827 142.274C112.679 141.423 113.765 140.843 114.947 140.608C116.129 140.373 117.354 140.494 118.468 140.955C119.581 141.415 120.533 142.196 121.202 143.197C121.872 144.198 122.229 145.375 122.229 146.579C122.227 148.193 121.585 149.741 120.442 150.882C119.3 152.023 117.751 152.665 116.136 152.667ZM116.136 140.959C115.023 140.959 113.936 141.289 113.011 141.906C112.086 142.524 111.365 143.402 110.939 144.429C110.514 145.455 110.402 146.585 110.619 147.675C110.836 148.766 111.372 149.767 112.159 150.553C112.945 151.339 113.947 151.874 115.038 152.091C116.13 152.308 117.26 152.196 118.288 151.771C119.316 151.346 120.194 150.625 120.813 149.701C121.431 148.777 121.76 147.691 121.76 146.579C121.759 145.089 121.166 143.661 120.111 142.607C119.057 141.554 117.627 140.961 116.136 140.959V140.959Z" fill="#3F3D56"/>
<path d="M113.504 148.629C113.461 148.629 113.419 148.615 113.385 148.589C113.351 148.563 113.327 148.526 113.315 148.485C113.304 148.443 113.307 148.399 113.324 148.36C113.34 148.32 113.369 148.287 113.406 148.265L116.33 146.579L113.406 144.893C113.362 144.867 113.329 144.824 113.316 144.775C113.303 144.725 113.31 144.672 113.335 144.627C113.361 144.582 113.404 144.55 113.454 144.536C113.503 144.523 113.556 144.53 113.601 144.555L116.817 146.41C116.847 146.428 116.871 146.452 116.888 146.482C116.905 146.511 116.914 146.545 116.914 146.579C116.914 146.613 116.905 146.647 116.888 146.676C116.871 146.706 116.847 146.731 116.817 146.748L113.601 148.603C113.572 148.62 113.538 148.629 113.504 148.629Z" fill="#3F3D56"/>
<path d="M117.816 149.305C117.764 149.305 117.715 149.285 117.678 149.248C117.641 149.212 117.621 149.162 117.621 149.111V144.048C117.621 143.996 117.641 143.947 117.678 143.91C117.715 143.873 117.764 143.853 117.816 143.853C117.867 143.853 117.917 143.873 117.954 143.91C117.99 143.947 118.011 143.996 118.011 144.048V149.111C118.011 149.162 117.99 149.212 117.954 149.248C117.917 149.285 117.867 149.305 117.816 149.305Z" fill="#3F3D56"/>
<path d="M35.7008 151.168C35.3787 150.845 35.1313 150.456 34.976 150.028C34.8206 149.6 34.7612 149.143 34.8018 148.689C34.8424 148.235 34.9821 147.796 35.211 147.402C35.4399 147.008 35.7525 146.669 36.1267 146.409L33.1287 135.75L38.6146 137.5L40.6205 147.354C41.0162 148.011 41.157 148.79 41.0162 149.544C40.8753 150.298 40.4626 150.974 39.8561 151.444C39.2497 151.914 38.4918 152.146 37.7259 152.095C36.96 152.044 36.2395 151.714 35.7008 151.168Z" fill="#FFB6B6"/>
<path d="M34.2345 98.0609L33.0981 96.8793C33.0981 96.8793 29.5847 99.2904 30.3281 106.765C30.8772 112.285 29.1421 114.627 29.336 130.673L34.2345 145.368L39.9002 142.4L35.8011 124.268L34.2345 98.0609Z" fill="#6C63FF"/>
<path d="M38.4849 217.328H42.5474L44.4803 201.672L38.4841 201.672L38.4849 217.328Z" fill="#FFB6B6"/>
<path d="M37.4486 216.003L45.4492 216.003H45.4495C46.8018 216.003 48.0985 216.539 49.0547 217.495C50.0109 218.45 50.5481 219.746 50.5482 221.097V221.262L37.4489 221.263L37.4486 216.003Z" fill="#2F2E41"/>
<path d="M50.3325 215.891L54.3649 216.384L58.1907 201.08L52.2395 200.351L50.3325 215.891Z" fill="#FFB6B6"/>
<path d="M49.4652 214.449L57.4064 215.422L57.4067 215.422C58.7488 215.587 59.9706 216.277 60.8032 217.341C61.6359 218.406 62.0112 219.757 61.8467 221.098L61.8265 221.263L48.8246 219.67L49.4652 214.449Z" fill="#2F2E41"/>
<path d="M36.3791 137.057C36.3791 137.057 28.5534 142.4 32.4661 156.865L37.7574 213.009L44.0439 212.964L46.7067 185.261L48.5163 165.757L54.5628 185.926L49.5895 210.673L56.9296 211.445L65.724 182.666L61.483 141.691L36.3791 137.057Z" fill="#2F2E41"/>
<path d="M55.2618 95.3625L51.2826 92.1647L40.7301 91.7308L33.0981 96.8793C33.0981 96.8793 32.3103 115.212 37.4747 131.543L34.7671 138.364L61.839 141.758L55.2618 95.3625Z" fill="#6C63FF"/>
<path d="M46.7299 87.8072C51.729 87.8072 55.7815 83.7582 55.7815 78.7635C55.7815 73.7688 51.729 69.7198 46.7299 69.7198C41.7308 69.7198 37.6783 73.7688 37.6783 78.7635C37.6783 83.7582 41.7308 87.8072 46.7299 87.8072Z" fill="#FFB6B6"/>
<path d="M49.1043 67.5841H47.0927C45.6911 67.1667 44.2113 67.0821 42.7712 67.3371C41.331 67.5922 39.9704 68.1797 38.7978 69.053C37.6251 69.9262 36.6728 71.0611 36.0166 72.3671C35.3605 73.6731 35.0188 75.1141 35.0186 76.5754L31.8858 86.9045C31.7954 87.2023 31.7762 87.5172 31.8295 87.8238C31.8828 88.1304 32.0073 88.4203 32.1929 88.6703C32.3785 88.9202 32.6201 89.1233 32.8984 89.2632C33.1766 89.4031 33.4838 89.476 33.7953 89.4759H35.3245C35.9648 88.5647 36.2441 87.4486 36.1083 86.3435C36.3927 87.0354 36.592 87.7591 36.7017 88.4989C36.7372 88.8241 36.7305 89.1525 36.6817 89.4759H49.985C50.0711 88.1723 49.6388 86.8873 48.7822 85.9002C49.854 86.9701 50.7856 88.1716 51.5545 89.4759H51.8044C52.3335 89.4759 52.841 89.2659 53.2152 88.8921C53.5893 88.5182 53.7995 88.0112 53.7995 87.4825V77.3572H58.886C58.886 76.0738 58.633 74.8029 58.1414 73.6172C57.6499 72.4315 56.9293 71.3541 56.021 70.4466C55.1127 69.539 54.0344 68.8191 52.8476 68.328C51.6608 67.8369 50.3888 67.5841 49.1043 67.5841Z" fill="#2F2E41"/>
<path d="M59.1769 150.386C58.8548 150.063 58.6074 149.674 58.4521 149.246C58.2968 148.818 58.2373 148.361 58.2779 147.907C58.3185 147.453 58.4582 147.014 58.6871 146.62C58.916 146.226 59.2286 145.887 59.6028 145.627L56.6048 134.968L62.0907 136.718L64.0966 146.572C64.4924 147.229 64.6332 148.008 64.4923 148.762C64.3514 149.516 63.9387 150.192 63.3323 150.662C62.7259 151.132 61.9679 151.364 61.202 151.313C60.4362 151.262 59.7156 150.932 59.1769 150.386Z" fill="#FFB6B6"/>
<path d="M51.8304 97.3854L55.2618 95.3625C55.2618 95.3625 60.659 94.4119 61.2351 101.596C61.8113 108.781 62.6411 127.43 62.6411 127.43L64.3245 143.152L58.0774 144.482L50.8973 122.983L51.8304 97.3854Z" fill="#6C63FF"/>
<path d="M83.3403 222H0.391269C0.287498 222 0.187983 221.959 0.114606 221.885C0.0412286 221.812 0 221.713 0 221.609C0 221.505 0.0412286 221.406 0.114606 221.333C0.187983 221.259 0.287498 221.218 0.391269 221.218H83.3403C83.4441 221.218 83.5436 221.259 83.617 221.333C83.6904 221.406 83.7316 221.505 83.7316 221.609C83.7316 221.713 83.6904 221.812 83.617 221.885C83.5436 221.959 83.4441 222 83.3403 222Z" fill="#CACACA"/>
</svg>
